<svg width="1002" height="2081" viewBox="0 0 1002 2081" fill="none" xmlns="http://www.w3.org/2000/svg">
<rect y="910.894" width="228.788" height="657.158" fill="#AC7B84"/>
<path d="M1001.56 1580.22C1001.56 1856.79 777.351 2081 500.779 2081C224.206 2081 0 1856.79 0 1580.22C0 1303.65 224.206 1079.44 500.779 1079.44C777.351 1079.44 1001.56 1303.65 1001.56 1580.22Z" fill="#AC7B84"/>
<ellipse cx="500.779" cy="1617.94" rx="331.013" ry="279.911" fill="#FEEFE5"/>
<rect x="169.766" y="910.894" width="831.792" height="713.138" fill="#FEEFE5"/>
<rect x="542.764" y="1450.62" width="458.794" height="173.417" fill="#AC7B84"/>
<path d="M1001.56 910.894C1001.56 1187.47 777.351 1411.67 500.779 1411.67C224.206 1411.67 0 1187.47 0 910.894C0 634.321 224.206 410.115 500.779 410.115C777.351 410.115 1001.56 634.321 1001.56 910.894Z" fill="#AC7B84"/>
<rect x="169.766" y="836.659" width="662.026" height="614.218" fill="#FEEFE5"/>
<rect x="339.532" y="1092.22" width="662.026" height="294.504" fill="#FEEFE5"/>
<rect x="831.792" y="900.55" width="169.766" height="338.923" fill="#AC7B84"/>
<ellipse cx="500.779" cy="859.477" rx="331.013" ry="306.369" fill="#FEEFE5"/>
<rect x="587.183" width="458.794" height="173.417" transform="rotate(90 587.183 0)" fill="#AC7B84"/>
</svg>
